{
  "accessors": [
    {
      "bufferView": 0,
      "componentType": 5125,
      "count": 110094,
      "type": "SCALAR"
    },
    {
      "bufferView": 1,
      "componentType": 5126,
      "count": 20849,
      "max": [
        0.04978658416633386,
        0.049786582406422975,
        0.006140244596570631
      ],
      "min": [
        -0.049786584166333886,
        -0.049786582406422975,
        -0.00614024459657063
      ],
      "type": "VEC3"
    },
    {
      "bufferView": 2,
      "componentType": 5126,
      "count": 20849,
      "max": [
        1.0,
        1.0,
        1.0
      ],
      "min": [
        -1.0,
        -1.0,
        -1.0
      ],
      "type": "VEC3"
    },
    {
      "bufferView": 3,
      "componentType": 5126,
      "count": 20849,
      "max": [
        0.8998558889400667,
        1.0
      ],
      "min": [
        0.0,
        0.0
      ],
      "type": "VEC2"
    }
  ],
  "asset": {
    "generator": "Adobe Illustrator",
    "version": "2.0"
  },
  "bufferViews": [
    {
      "buffer": 0,
      "byteLength": 440376,
      "target": 34963
    },
    {
      "buffer": 0,
      "byteLength": 250188,
      "byteOffset": 440376,
      "target": 34962
    },
    {
      "buffer": 0,
      "byteLength": 250188,
      "byteOffset": 690564,
      "target": 34962
    },
    {
      "buffer": 0,
      "byteLength": 166792,
      "byteOffset": 940752,
      "target": 34962
    }
  ],
  "buffers": [
    {
      "byteLength": 1107544,
      "uri": "data:application/octet-stream;base64,"
    }
  ],
  "materials": [
    {
      "doubleSided": true,
      "pbrMetallicRoughness": {
        "baseColorFactor": [
          0.0,
          0.359375,
          0.33984375,
          1.0
        ],
        "metallicFactor": 0.0,
        "roughnessFactor": 0.4000000059604645
      }
    }
  ],
  "meshes": [
    {
      "primitives": [
        {
          "attributes": {
            "NORMAL": 2,
            "POSITION": 1,
            "TEXCOORD_0": 3
          },
          "indices": 0,
          "material": 0,
          "mode": 4
        }
      ]
    }
  ],
  "nodes": [
    {
      "mesh": 0
    }
  ],
  "scenes": [
    {
      "nodes": [
        0
      ]
    }
  ]
}
